# xmcd
#
# Track frame offsets: 
#        150
#        20452
#        38271
#        63415
#        82283
#        100337
#        122940
#        146913
#        167653
#        186798
#        213058
#        233869
#        268932
#
# Disc length: 4084 seconds
#
# Revision: 0
# Processed by: cddbd v1.4PL0 Copyright (c) Steve Scherf et al.
# Submitted via: ExactAudioCopy v0.90b4
#
DISCID=b80ff20d
DTITLE=Rahsaan Patterson - Love in Stereo
DYEAR=1999
DGENRE=R&B
TTITLE0=Treat You Like A Queen
TTITLE1=Sure Boy
TTITLE2=It's Alright Now
TTITLE3=Do You Feel The Way I Do?
TTITLE4=Friend Of Mine
TTITLE5=The Day
TTITLE6=It Ain't Love
TTITLE7=Humor
TTITLE8=Humor
TTITLE9=The Moment
TTITLE10=So Right
TTITLE11=Get Here
TTITLE12=I
EXTD=
EXTT0=
EXTT1=
EXTT2=
EXTT3=
EXTT4=
EXTT5=
EXTT6=
EXTT7=
EXTT8=
EXTT9=
EXTT10=
EXTT11=
EXTT12=
PLAYORDER=
